<svg xmlns="http://www.w3.org/2000/svg" height="511.99998pt" version="1.1" viewBox="1 1 511.99998 511.99998" width="511.99998pt">
<g id="surface1">
<path d="M 512 256 C 512 300.492188 500.652344 342.328125 480.683594 378.785156 C 476.753906 385.976562 472.480469 392.945312 467.90625 399.683594 C 452.074219 422.984375 432.492188 443.546875 410.039062 460.488281 C 403.320312 465.554688 396.351562 470.296875 389.140625 474.695312 C 383.082031 478.394531 376.863281 481.84375 370.488281 485.042969 C 336.039062 502.292969 297.160156 512 256 512 C 214.839844 512 175.949219 502.292969 141.5 485.03125 C 135.125 481.832031 128.910156 478.386719 122.847656 474.6875 C 115.640625 470.289062 108.667969 465.542969 101.949219 460.476562 C 79.496094 443.539062 59.925781 422.984375 44.09375 399.683594 C 39.519531 392.945312 35.246094 385.976562 31.316406 378.785156 C 11.347656 342.328125 0 300.492188 0 256 C 0 241.769531 1.160156 227.796875 3.40625 214.203125 C 4.554688 207.128906 6.007812 200.160156 7.730469 193.304688 C 16.195312 159.703125 31.292969 128.730469 51.566406 101.886719 C 57.0625 94.605469 62.933594 87.636719 69.171875 80.988281 C 75.453125 74.292969 82.078125 67.929688 89.046875 61.929688 C 133.863281 23.332031 192.207031 0 256 0 C 383.152344 0 488.648438 92.691406 508.59375 214.203125 C 510.839844 227.796875 512 241.769531 512 256 Z M 512 256 " style=" stroke:none;fill-rule:nonzero;fill:rgb(27.058824%,69.411765%,85.882353%);fill-opacity:1;" />
<path d="M 508.59375 214.203125 L 170.390625 214.203125 C 153.617188 214.203125 140.015625 200.605469 140.015625 183.828125 L 140.015625 90.820312 C 140.015625 74.863281 127.082031 61.933594 111.128906 61.933594 L 89.046875 61.933594 C 82.078125 67.929688 75.453125 74.292969 69.171875 80.988281 C 62.933594 87.636719 57.0625 94.605469 51.566406 101.886719 C 31.292969 128.730469 16.195312 159.703125 7.730469 193.304688 C 6.007812 200.160156 4.554688 207.128906 3.40625 214.203125 C 1.160156 227.796875 0 241.769531 0 256 C 0 300.492188 11.347656 342.328125 31.316406 378.785156 C 35.246094 385.976562 39.519531 392.945312 44.09375 399.683594 C 59.925781 422.984375 79.496094 443.539062 101.949219 460.476562 C 108.667969 465.542969 115.640625 470.289062 122.847656 474.6875 C 128.910156 478.386719 135.125 481.832031 141.5 485.03125 C 175.949219 502.292969 214.839844 512 256 512 C 297.160156 512 336.039062 502.292969 370.488281 485.042969 C 376.863281 481.84375 383.082031 478.394531 389.140625 474.695312 C 396.351562 470.296875 403.320312 465.554688 410.039062 460.488281 C 432.492188 443.546875 452.074219 422.984375 467.90625 399.683594 C 472.480469 392.945312 476.753906 385.976562 480.683594 378.785156 C 500.652344 342.328125 512 300.492188 512 256 C 512 241.769531 510.839844 227.796875 508.59375 214.203125 Z M 508.59375 214.203125 " style=" stroke:none;fill-rule:nonzero;fill:rgb(30.588235%,29.019608%,31.764706%);fill-opacity:1;" />
<path d="M 122.847656 405.136719 L 122.847656 474.6875 C 115.640625 470.289062 108.667969 465.542969 101.949219 460.476562 C 79.496094 443.539062 59.925781 422.984375 44.09375 399.683594 C 39.519531 392.945312 35.246094 385.976562 31.316406 378.785156 L 96.496094 378.785156 C 111.050781 378.785156 122.847656 390.582031 122.847656 405.136719 Z M 122.847656 405.136719 " style=" stroke:none;fill-rule:nonzero;fill:rgb(85.882353%,46.666667%,20.392157%);fill-opacity:1;" />
<path d="M 101.949219 405.136719 L 101.949219 460.476562 C 79.496094 443.539062 59.925781 422.984375 44.09375 399.683594 L 96.496094 399.683594 C 99.503906 399.683594 101.949219 402.128906 101.949219 405.136719 Z M 101.949219 405.136719 " style=" stroke:none;fill-rule:nonzero;fill:rgb(92.941176%,51.372549%,17.254902%);fill-opacity:1;" />
<path d="M 370.488281 405.136719 L 370.488281 485.042969 C 336.039062 502.292969 297.160156 512 256 512 C 214.839844 512 175.949219 502.292969 141.5 485.03125 L 141.5 405.136719 C 141.5 390.582031 153.308594 378.785156 167.863281 378.785156 L 344.136719 378.785156 C 358.691406 378.785156 370.488281 390.582031 370.488281 405.136719 Z M 370.488281 405.136719 " style=" stroke:none;fill-rule:nonzero;fill:rgb(85.882353%,46.666667%,20.392157%);fill-opacity:1;" />
<path d="M 167.859375 491.101562 C 164.851562 491.101562 162.402344 488.65625 162.402344 485.644531 L 162.402344 405.140625 C 162.402344 402.128906 164.851562 399.683594 167.859375 399.683594 L 344.132812 399.683594 C 347.140625 399.683594 349.589844 402.128906 349.589844 405.140625 L 349.589844 485.644531 C 349.589844 488.65625 347.140625 491.101562 344.132812 491.101562 Z M 167.859375 491.101562 " style=" stroke:none;fill-rule:nonzero;fill:rgb(92.941176%,51.372549%,17.254902%);fill-opacity:1;" />
<path d="M 480.683594 378.785156 C 476.753906 385.976562 472.480469 392.945312 467.90625 399.683594 C 452.074219 422.984375 432.492188 443.546875 410.039062 460.488281 C 403.320312 465.554688 396.351562 470.296875 389.140625 474.695312 L 389.140625 405.136719 C 389.140625 390.582031 400.949219 378.785156 415.503906 378.785156 Z M 480.683594 378.785156 " style=" stroke:none;fill-rule:nonzero;fill:rgb(85.882353%,46.666667%,20.392157%);fill-opacity:1;" />
<path d="M 467.90625 399.683594 C 452.074219 422.984375 432.492188 443.546875 410.039062 460.488281 L 410.039062 405.136719 C 410.039062 402.128906 412.496094 399.683594 415.503906 399.683594 Z M 467.90625 399.683594 " style=" stroke:none;fill-rule:nonzero;fill:rgb(92.941176%,51.372549%,17.254902%);fill-opacity:1;" />
<path d="M 122.847656 107.34375 L 122.847656 187.851562 C 122.847656 202.40625 111.050781 214.203125 96.496094 214.203125 L 3.40625 214.203125 C 4.554688 207.128906 6.007812 200.160156 7.730469 193.304688 C 16.195312 159.703125 31.292969 128.730469 51.566406 101.886719 C 57.0625 94.605469 62.933594 87.636719 69.171875 80.988281 L 96.496094 80.988281 C 111.050781 80.988281 122.847656 92.785156 122.847656 107.34375 Z M 122.847656 107.34375 " style=" stroke:none;fill-rule:nonzero;fill:rgb(85.882353%,46.666667%,20.392157%);fill-opacity:1;" />
<path d="M 101.949219 107.34375 L 101.949219 187.851562 C 101.949219 190.859375 99.503906 193.304688 96.496094 193.304688 L 7.730469 193.304688 C 16.195312 159.703125 31.292969 128.730469 51.566406 101.886719 L 96.496094 101.886719 C 99.503906 101.886719 101.949219 104.332031 101.949219 107.34375 Z M 101.949219 107.34375 " style=" stroke:none;fill-rule:nonzero;fill:rgb(92.941176%,51.372549%,17.254902%);fill-opacity:1;" />
<path d="M 220.3125 229.886719 L 44.039062 229.886719 C 29.484375 229.886719 17.683594 241.6875 17.683594 256.242188 L 17.683594 336.746094 C 17.683594 351.304688 29.484375 363.101562 44.039062 363.101562 L 220.3125 363.101562 C 234.867188 363.101562 246.667969 351.304688 246.667969 336.746094 L 246.667969 256.242188 C 246.667969 241.6875 234.867188 229.886719 220.3125 229.886719 Z M 220.3125 229.886719 " style=" stroke:none;fill-rule:nonzero;fill:rgb(85.882353%,46.666667%,20.392157%);fill-opacity:1;" />
<path d="M 44.039062 342.207031 C 41.03125 342.207031 38.582031 339.757812 38.582031 336.746094 L 38.582031 256.242188 C 38.582031 253.230469 41.03125 250.785156 44.039062 250.785156 L 220.3125 250.785156 C 223.320312 250.785156 225.769531 253.230469 225.769531 256.242188 L 225.769531 336.746094 C 225.769531 339.757812 223.320312 342.207031 220.3125 342.207031 Z M 44.039062 342.207031 " style=" stroke:none;fill-rule:nonzero;fill:rgb(92.941176%,51.372549%,17.254902%);fill-opacity:1;" />
<path d="M 467.953125 229.886719 L 291.679688 229.886719 C 277.125 229.886719 265.324219 241.6875 265.324219 256.242188 L 265.324219 336.746094 C 265.324219 351.304688 277.125 363.101562 291.679688 363.101562 L 467.953125 363.101562 C 482.507812 363.101562 494.308594 351.304688 494.308594 336.746094 L 494.308594 256.242188 C 494.308594 241.6875 482.511719 229.886719 467.953125 229.886719 Z M 467.953125 229.886719 " style=" stroke:none;fill-rule:nonzero;fill:rgb(85.882353%,46.666667%,20.392157%);fill-opacity:1;" />
<path d="M 291.679688 342.207031 C 288.671875 342.207031 286.222656 339.757812 286.222656 336.746094 L 286.222656 256.242188 C 286.222656 253.230469 288.671875 250.785156 291.679688 250.785156 L 467.953125 250.785156 C 470.960938 250.785156 473.410156 253.230469 473.410156 256.242188 L 473.410156 336.746094 C 473.410156 339.757812 470.960938 342.207031 467.953125 342.207031 Z M 291.679688 342.207031 " style=" stroke:none;fill-rule:nonzero;fill:rgb(92.941176%,51.372549%,17.254902%);fill-opacity:1;" />
<path d="M 434.914062 2.683594 L 263.214844 42.585938 C 249.039062 45.882812 240.214844 60.046875 243.511719 74.222656 L 261.734375 152.640625 C 265.027344 166.820312 279.195312 175.640625 293.371094 172.347656 L 465.070312 132.441406 C 479.246094 129.148438 488.070312 114.984375 484.773438 100.804688 L 466.550781 22.390625 C 463.257812 8.210938 449.09375 -0.609375 434.914062 2.683594 Z M 434.914062 2.683594 " style=" stroke:none;fill-rule:nonzero;fill:rgb(85.882353%,46.666667%,20.392157%);fill-opacity:1;" />
<path d="M 288.644531 151.992188 C 285.710938 152.671875 282.773438 150.839844 282.089844 147.910156 L 263.867188 69.492188 C 263.1875 66.5625 265.015625 63.625 267.949219 62.941406 L 439.644531 23.039062 C 442.574219 22.359375 445.515625 24.1875 446.195312 27.121094 L 464.417969 105.535156 C 465.101562 108.464844 463.269531 111.40625 460.339844 112.085938 Z M 288.644531 151.992188 " style=" stroke:none;fill-rule:nonzero;fill:rgb(92.941176%,51.372549%,17.254902%);fill-opacity:1;" />
</g>
</svg>