<svg id="Capa_1" enable-background="new 0 0 512 512" height="512" viewBox="0 0 512 512" width="512" xmlns="http://www.w3.org/2000/svg" xmlns:xlink="http://www.w3.org/1999/xlink"><linearGradient id="SVGID_1_" gradientUnits="userSpaceOnUse" x1="256" x2="256" y1="512" y2="0"><stop offset="0" stop-color="#addcff"/><stop offset=".5028" stop-color="#eaf6ff"/><stop offset="1" stop-color="#eaf6ff"/></linearGradient><linearGradient id="SVGID_2_" gradientUnits="userSpaceOnUse" x1="256" x2="256" y1="407" y2="105"><stop offset="0" stop-color="#00c0ff"/><stop offset="1" stop-color="#5558ff"/></linearGradient><g><g><circle cx="256" cy="256" fill="url(#SVGID_1_)" r="256"/></g><g><g><path d="m131.427 140.655h-17.618c-4.869 0-8.809 3.987-8.809 8.914v124.794c0 4.927 3.94 8.914 8.809 8.914h17.618c4.869 0 8.809-3.987 8.809-8.914v-124.794c.001-4.927-3.94-8.914-8.809-8.914zm269.057 206.716-23.924-35.612c-3.286-4.875-11.287-4.875-14.573 0l-23.924 35.621c-10.168 15.138-8.267 35.525 4.525 48.46 7.355 7.443 17.025 11.16 26.685 11.16 9.661 0 19.33-3.717 26.685-11.16 12.793-12.935 14.694-33.322 4.526-48.469zm-66.447-73.008c0 4.927 3.94 8.914 8.809 8.914h52.855c4.869 0 8.809-3.987 8.809-8.914v-35.656c0-34.402-27.666-62.397-61.664-62.397h-39.564l-4.602-28.195c-.697-4.3-4.379-7.46-8.689-7.46h-26.427v-17.828h26.427c4.869 0 8.809-3.987 8.809-8.914s-3.94-8.914-8.809-8.914h-70.473c-4.869 0-8.809 3.987-8.809 8.914s3.94 8.914 8.809 8.914h26.427v17.828h-26.427c-4.31 0-7.992 3.16-8.689 7.46l-4.602 28.195h-48.373v71.311h57.19c10.177 11.386 24.414 17.828 39.71 17.828s29.533-6.442 39.71-17.828h39.572v26.742z" fill="url(#SVGID_2_)"/></g></g></g></svg>