<svg id="Capa_1" enable-background="new 0 0 512 512" height="512" viewBox="0 0 512 512" width="512" xmlns="http://www.w3.org/2000/svg" xmlns:xlink="http://www.w3.org/1999/xlink"><linearGradient id="SVGID_1_" gradientUnits="userSpaceOnUse" x1="74.981" x2="437.019" y1="74.981" y2="437.019"><stop offset="0" stop-color="#c6f243"/><stop offset="1" stop-color="#8cd96a"/></linearGradient><linearGradient id="lg1"><stop offset="0" stop-color="#80aaff"/><stop offset="1" stop-color="#4d87ff"/></linearGradient><linearGradient id="SVGID_2_" gradientUnits="userSpaceOnUse" x1="307.063" x2="367.531" xlink:href="#lg1" y1="296.648" y2="296.648"/><linearGradient id="SVGID_3_" gradientUnits="userSpaceOnUse" x1="266.75" x2="407.844" y1="225.766" y2="225.766"><stop offset="0" stop-color="#9cf"/><stop offset="1" stop-color="#80aaff"/></linearGradient><linearGradient id="SVGID_4_" gradientUnits="userSpaceOnUse" x1="246.594" x2="428" xlink:href="#lg1" y1="165.297" y2="165.297"/><linearGradient id="SVGID_5_" gradientUnits="userSpaceOnUse" x1="307.063" x2="367.531" xlink:href="#lg1" y1="235.844" y2="235.844"/><linearGradient id="SVGID_6_" gradientUnits="userSpaceOnUse" x1="84" x2="225.094" y1="235.844" y2="235.844"><stop offset="0" stop-color="#4d6e80"/><stop offset="1" stop-color="#3d5866"/></linearGradient><g><circle cx="256" cy="256" fill="url(#SVGID_1_)" r="256"/><g><g><g><path d="m286.906 84h20.156v71.219h-20.156z" fill="#f3f5f9"/></g><g><path d="m367.531 84h20.156v71.219h-20.156z" fill="#e1e6f0"/></g><g><path d="m296.984 428h-102.125c-27.784 0-50.391-22.607-50.391-50.391v-40.312h20.156v40.312c0 16.672 13.562 30.234 30.234 30.234h102.125c16.672 0 30.234-13.562 30.234-30.234v-60.469h20.156v60.469c.002 27.784-22.605 50.391-50.389 50.391z" fill="#e1e6f0"/></g><g><g><g><g><path d="m367.531 327.219h-60.469v-61.141h60.469z" fill="url(#SVGID_2_)"/></g></g></g></g><g id="Plug_And_Work_1_"><g><g><g><g><path d="m357.453 286.234h-40.312c-27.784 0-50.391-22.607-50.391-50.391v-50.391l70.547-20.156 70.547 20.156v50.391c0 27.785-22.607 50.391-50.391 50.391z" fill="url(#SVGID_3_)"/></g></g></g></g><g><g><g><g><path d="m428 185.453h-181.406v-40.312h181.406z" fill="url(#SVGID_4_)"/></g></g></g></g><g><g><g><path d="m307.062 225.766h60.469v20.156h-60.469z" fill="url(#SVGID_5_)"/></g></g></g></g></g><path d="m225.094 245.922v-20.156h-21.171c-1.309-6.424-3.851-12.403-7.357-17.69l14.995-14.995-14.251-14.251-14.995 14.995c-5.287-3.506-11.266-6.047-17.69-7.357v-21.17h-20.156v21.17c-6.424 1.309-12.403 3.851-17.69 7.357l-14.995-14.995-14.251 14.251 14.995 14.995c-3.506 5.287-6.047 11.266-7.357 17.69h-21.171v20.156h21.17c1.31 6.424 3.851 12.403 7.357 17.69l-14.995 14.995 14.251 14.251 14.995-14.995c5.287 3.506 11.266 6.047 17.69 7.357v21.17h20.156v-21.17c6.424-1.31 12.403-3.851 17.69-7.357l14.995 14.995 14.251-14.251-14.995-14.995c3.506-5.287 6.047-11.266 7.357-17.69zm-60.469 0h-20.156v-20.156h20.156z" fill="url(#SVGID_6_)"/></g></g></svg>