<svg xmlns="http://www.w3.org/2000/svg" height="511.99998pt" version="1.1" viewBox="1 1 511.99998 511.99998" width="511.99998pt">
<g id="surface1">
<path d="M 512 256 C 512 331.390625 479.410156 399.160156 427.550781 446.003906 C 403.65625 467.601562 375.660156 484.75 344.890625 496.136719 C 333.425781 500.378906 321.578125 503.828125 309.40625 506.410156 C 292.183594 510.078125 274.316406 512 256 512 C 229.492188 512 203.921875 507.976562 179.878906 500.496094 L 179.867188 500.496094 C 175.554688 499.148438 171.300781 497.695312 167.089844 496.136719 C 136.316406 484.738281 108.335938 467.59375 84.449219 446.003906 C 32.589844 399.160156 0 331.390625 0 256 C 0 114.613281 114.613281 0 256 0 C 397.386719 0 512 114.613281 512 256 Z M 512 256 " style=" stroke:none;fill-rule:nonzero;fill:rgb(99.215686%,68.235294%,18.431373%);fill-opacity:1;" />
<path d="M 427.550781 187.707031 L 427.550781 446.003906 C 394.753906 475.648438 354.25 496.902344 309.40625 506.410156 L 179.878906 500.496094 L 179.867188 500.496094 C 144.050781 489.347656 111.605469 470.550781 84.449219 446.003906 L 84.449219 187.707031 Z M 427.550781 187.707031 " style=" stroke:none;fill-rule:nonzero;fill:rgb(86.27451%,92.54902%,97.647059%);fill-opacity:1;" />
<path d="M 187.382812 187.707031 L 187.382812 496.136719 L 167.089844 496.136719 C 136.316406 484.738281 108.335938 467.59375 84.449219 446.003906 L 84.449219 187.707031 Z M 187.382812 187.707031 " style=" stroke:none;fill-rule:nonzero;fill:rgb(68.627451%,76.078431%,92.156863%);fill-opacity:1;" />
<path d="M 427.554688 172.03125 L 427.554688 340.617188 C 427.554688 350.09375 423.707031 358.671875 417.5 364.878906 C 411.292969 371.085938 402.714844 374.929688 393.238281 374.929688 C 374.296875 374.929688 358.933594 359.570312 358.933594 340.617188 L 358.933594 307.023438 C 358.933594 297.546875 355.101562 288.964844 348.882812 282.761719 C 342.675781 276.542969 334.097656 272.707031 324.621094 272.707031 C 305.667969 272.707031 290.304688 288.066406 290.304688 307.023438 L 290.304688 371.054688 C 290.304688 380.53125 286.472656 389.097656 280.253906 395.304688 C 274.046875 401.511719 265.46875 405.359375 256.003906 405.359375 C 237.046875 405.359375 221.6875 389.996094 221.6875 371.054688 L 221.6875 335.058594 C 221.6875 325.578125 217.84375 317 211.636719 310.792969 C 205.429688 304.585938 196.851562 300.742188 187.375 300.742188 C 168.429688 300.742188 153.070312 316.101562 153.070312 335.058594 L 153.070312 340.617188 C 153.070312 350.09375 149.234375 358.671875 143.015625 364.878906 C 136.8125 371.085938 128.230469 374.929688 118.753906 374.929688 C 99.8125 374.929688 84.441406 359.570312 84.441406 340.617188 L 84.441406 187.707031 Z M 427.554688 172.03125 " style=" stroke:none;fill-rule:nonzero;fill:rgb(10.588235%,68.235294%,55.686275%);fill-opacity:1;" />
<path d="M 187.375 187.707031 L 187.375 300.742188 C 168.429688 300.742188 153.070312 316.101562 153.070312 335.058594 L 153.070312 340.617188 C 153.070312 350.09375 149.234375 358.671875 143.015625 364.878906 C 136.8125 371.085938 128.230469 374.929688 118.753906 374.929688 C 99.8125 374.929688 84.441406 359.570312 84.441406 340.617188 L 84.441406 187.707031 Z M 187.375 187.707031 " style=" stroke:none;fill-rule:nonzero;fill:rgb(7.45098%,60%,47.45098%);fill-opacity:1;" />
<path d="M 427.554688 160.863281 C 423.226562 160.863281 419.714844 157.351562 419.714844 153.023438 L 419.714844 127.394531 C 419.714844 71.632812 374.351562 26.269531 318.589844 26.269531 L 193.402344 26.269531 C 137.640625 26.269531 92.277344 71.632812 92.277344 127.394531 L 92.277344 153.023438 C 92.277344 157.351562 88.769531 160.863281 84.441406 160.863281 C 80.113281 160.863281 76.605469 157.351562 76.605469 153.023438 L 76.605469 127.394531 C 76.605469 62.992188 129 10.59375 193.402344 10.59375 L 318.589844 10.59375 C 382.996094 10.59375 435.390625 62.992188 435.390625 127.394531 L 435.390625 153.023438 C 435.390625 157.351562 431.882812 160.863281 427.554688 160.863281 Z M 427.554688 160.863281 " style=" stroke:none;fill-rule:nonzero;fill:rgb(16.470588%,25.098039%,47.843137%);fill-opacity:1;" />
<path d="M 344.890625 496.136719 C 333.425781 500.378906 321.578125 503.828125 309.40625 506.410156 C 292.183594 510.078125 274.316406 512 256 512 C 229.492188 512 203.921875 507.976562 179.878906 500.496094 L 179.867188 500.496094 C 175.554688 499.148438 171.300781 497.695312 167.089844 496.136719 Z M 344.890625 496.136719 " style=" stroke:none;fill-rule:nonzero;fill:rgb(16.470588%,25.098039%,47.843137%);fill-opacity:1;" />
<path d="M 456.382812 170.371094 C 456.382812 179.941406 448.628906 187.707031 439.046875 187.707031 L 72.945312 187.707031 C 68.160156 187.707031 63.824219 185.761719 60.691406 182.628906 C 57.554688 179.492188 55.613281 175.15625 55.613281 170.371094 C 55.613281 160.789062 63.375 153.023438 72.945312 153.023438 L 439.046875 153.023438 C 443.832031 153.023438 448.167969 154.96875 451.304688 158.101562 C 454.449219 161.25 456.382812 165.574219 456.382812 170.371094 Z M 456.382812 170.371094 " style=" stroke:none;fill-rule:nonzero;fill:rgb(10.588235%,17.254902%,38.039216%);fill-opacity:1;" />
<path d="M 456.382812 170.371094 C 456.382812 179.941406 448.628906 187.707031 439.046875 187.707031 L 153.402344 187.707031 C 148.617188 187.707031 144.28125 185.761719 141.148438 182.628906 C 138.011719 179.492188 136.070312 175.15625 136.070312 170.371094 C 136.070312 160.789062 143.832031 153.023438 153.402344 153.023438 L 439.046875 153.023438 C 443.832031 153.023438 448.167969 154.96875 451.304688 158.101562 C 454.449219 161.25 456.382812 165.574219 456.382812 170.371094 Z M 456.382812 170.371094 " style=" stroke:none;fill-rule:nonzero;fill:rgb(16.470588%,25.098039%,47.843137%);fill-opacity:1;" />
<path d="M 351.929688 466.40625 C 337.648438 466.40625 326.070312 454.828125 326.070312 440.542969 L 326.070312 424.871094 C 326.070312 410.589844 337.648438 399.011719 351.929688 399.011719 C 366.210938 399.011719 377.792969 410.589844 377.792969 424.871094 L 377.792969 440.542969 C 377.792969 454.828125 366.214844 466.40625 351.929688 466.40625 Z M 351.929688 466.40625 " style=" stroke:none;fill-rule:nonzero;fill:rgb(10.588235%,68.235294%,55.686275%);fill-opacity:1;" />
<path d="M 145.835938 457.785156 C 131.554688 457.785156 119.976562 446.207031 119.976562 431.925781 L 119.976562 416.25 C 119.976562 401.96875 131.550781 390.390625 145.835938 390.390625 C 160.117188 390.390625 171.695312 401.96875 171.695312 416.25 L 171.695312 431.925781 C 171.695312 446.207031 160.117188 457.785156 145.835938 457.785156 Z M 145.835938 457.785156 " style=" stroke:none;fill-rule:nonzero;fill:rgb(7.45098%,60%,47.45098%);fill-opacity:1;" />
</g>
</svg>