<svg xmlns="http://www.w3.org/2000/svg" height="511.99998pt" version="1.1" viewBox="1 1 511.99998 511.99998" width="511.99998pt">
<g id="surface1">
<path d="M 512 256 C 512 397.386719 397.386719 512 256 512 C 114.613281 512 0 397.386719 0 256 C 0 114.613281 114.613281 0 256 0 C 397.386719 0 512 114.613281 512 256 Z M 512 256 " style=" stroke:none;fill-rule:nonzero;fill:rgb(16.470588%,25.098039%,47.843137%);fill-opacity:1;" />
<path d="M 441.535156 123.859375 L 198.277344 123.859375 L 198.277344 97.453125 C 198.277344 113.898438 184.949219 127.230469 168.503906 127.230469 L 167.238281 127.230469 C 150.808594 127.230469 137.515625 113.785156 137.464844 97.355469 C 137.410156 80.957031 124.101562 67.679688 107.6875 67.679688 L 106.425781 67.679688 C 89.980469 67.679688 76.648438 81.011719 76.648438 97.453125 L 76.648438 112.0625 C 76.648438 128.503906 63.316406 141.835938 46.875 141.835938 L 45.609375 141.835938 C 29.164062 141.835938 15.832031 155.167969 15.832031 171.613281 L 15.832031 271.613281 C 15.832031 288.054688 29.164062 301.386719 45.609375 301.386719 L 46.875 301.386719 C 63.316406 301.386719 76.648438 288.054688 76.648438 271.613281 C 76.648438 255.167969 89.980469 241.835938 106.425781 241.835938 L 107.6875 241.835938 C 124.132812 241.835938 137.464844 255.167969 137.464844 271.613281 L 137.464844 300.207031 C 137.464844 316.652344 150.792969 329.980469 167.238281 329.980469 L 168.503906 329.980469 C 184.949219 329.980469 198.277344 316.652344 198.277344 300.207031 L 198.277344 244.785156 C 198.277344 227.644531 212.175781 213.746094 229.316406 213.746094 C 245.761719 213.746094 259.09375 227.078125 259.09375 243.523438 L 259.09375 250.265625 C 259.09375 266.710938 272.421875 280.039062 288.867188 280.039062 L 290.132812 280.039062 C 306.578125 280.039062 319.90625 266.710938 319.90625 250.265625 L 319.90625 227.792969 C 319.90625 211.347656 333.238281 198.015625 349.683594 198.015625 L 350.949219 198.015625 C 367.390625 198.015625 380.722656 211.347656 380.722656 227.792969 L 380.722656 251.390625 C 380.722656 267.832031 394.054688 281.164062 410.5 281.164062 L 411.761719 281.164062 C 428.207031 281.164062 441.539062 267.832031 441.539062 251.390625 L 441.539062 123.859375 Z M 441.535156 123.859375 " style=" stroke:none;fill-rule:nonzero;fill:rgb(94.901961%,26.27451%,33.333333%);fill-opacity:1;" />
<path d="M 243.429688 440.707031 L 213.933594 440.707031 L 213.933594 238.347656 C 213.933594 230.796875 220.054688 224.675781 227.605469 224.675781 L 450.871094 224.675781 C 459.597656 224.675781 466.671875 217.601562 466.671875 208.875 L 466.671875 139.703125 C 466.671875 130.976562 459.597656 123.902344 450.871094 123.902344 L 233.597656 123.902344 L 233.597656 94.410156 L 450.871094 94.410156 C 475.886719 94.410156 496.164062 114.6875 496.164062 139.703125 L 496.164062 208.875 C 496.164062 233.890625 475.886719 254.167969 450.871094 254.167969 L 243.429688 254.167969 Z M 243.429688 440.707031 " style=" stroke:none;fill-rule:nonzero;fill:rgb(86.27451%,92.54902%,97.647059%);fill-opacity:1;" />
<path d="M 441.535156 61.742188 L 441.535156 156.578125 C 441.535156 175.1875 426.4375 190.265625 407.835938 190.265625 L 49.53125 190.265625 C 30.910156 190.265625 15.832031 175.1875 15.832031 156.578125 L 15.832031 61.742188 C 15.832031 43.132812 30.910156 28.042969 49.53125 28.042969 L 407.835938 28.042969 C 426.4375 28.042969 441.535156 43.132812 441.535156 61.742188 Z M 441.535156 61.742188 " style=" stroke:none;fill-rule:nonzero;fill:rgb(85.490196%,14.901961%,24.313725%);fill-opacity:1;" />
<path d="M 441.535156 61.742188 L 441.535156 113.757812 C 441.535156 132.367188 426.4375 147.445312 407.835938 147.445312 L 49.53125 147.445312 C 30.910156 147.445312 15.832031 132.367188 15.832031 113.757812 L 15.832031 61.742188 C 15.832031 43.132812 30.910156 28.042969 49.53125 28.042969 L 407.835938 28.042969 C 424.492188 28.042969 438.347656 40.144531 441.054688 56.046875 C 441.367188 57.898438 441.535156 59.796875 441.535156 61.742188 Z M 441.535156 61.742188 " style=" stroke:none;fill-rule:nonzero;fill:rgb(94.901961%,26.27451%,33.333333%);fill-opacity:1;" />
<path d="M 281.769531 424.253906 L 281.769531 510.515625 C 273.296875 511.488281 264.695312 512 256.003906 512 C 239.953125 512 224.257812 510.285156 209.035156 506.992188 C 197.605469 504.527344 186.445312 501.183594 175.597656 497.015625 L 175.597656 424.253906 Z M 281.769531 424.253906 " style=" stroke:none;fill-rule:nonzero;fill:rgb(92.941176%,58.431373%,17.254902%);fill-opacity:1;" />
<path d="M 281.769531 424.253906 L 281.769531 509.90625 C 273.296875 511.277344 264.695312 512 256.003906 512 C 239.953125 512 224.257812 509.578125 209.035156 504.929688 L 209.035156 424.253906 Z M 281.769531 424.253906 " style=" stroke:none;fill-rule:nonzero;fill:rgb(99.215686%,68.235294%,18.431373%);fill-opacity:1;" />
<path d="M 49.53125 28.042969 L 202.796875 28.042969 C 199.933594 32.746094 198.28125 38.261719 198.28125 44.175781 L 198.28125 99.597656 C 198.28125 116.035156 184.949219 129.367188 168.503906 129.367188 L 167.238281 129.367188 C 150.792969 129.367188 137.460938 116.035156 137.460938 99.597656 L 137.460938 71 C 137.460938 54.554688 124.136719 41.21875 107.691406 41.21875 L 106.425781 41.21875 C 98.203125 41.21875 90.761719 44.554688 85.371094 49.945312 C 79.980469 55.328125 76.644531 62.777344 76.644531 71 C 76.644531 87.445312 63.3125 100.78125 46.878906 100.78125 L 45.613281 100.78125 C 29.167969 100.78125 15.832031 87.445312 15.832031 71 L 15.832031 61.742188 C 15.832031 43.132812 30.910156 28.042969 49.53125 28.042969 Z M 49.53125 28.042969 " style=" stroke:none;fill-rule:nonzero;fill:rgb(85.490196%,14.901961%,24.313725%);fill-opacity:1;" />
<path d="M 255.113281 28.042969 L 319.910156 28.042969 L 319.910156 49.652344 C 319.910156 66.097656 306.578125 79.433594 290.128906 79.433594 L 288.863281 79.433594 C 272.417969 79.433594 259.097656 66.097656 259.097656 49.652344 L 259.097656 42.914062 C 259.097656 37.5 257.652344 32.410156 255.113281 28.042969 Z M 255.113281 28.042969 " style=" stroke:none;fill-rule:nonzero;fill:rgb(85.490196%,14.901961%,24.313725%);fill-opacity:1;" />
<path d="M 441.054688 56.046875 C 438.578125 69.976562 426.40625 80.550781 411.753906 80.550781 L 410.492188 80.550781 C 394.054688 80.550781 380.722656 67.21875 380.722656 50.769531 L 380.722656 28.042969 L 407.835938 28.042969 C 424.492188 28.042969 438.347656 40.144531 441.054688 56.046875 Z M 441.054688 56.046875 " style=" stroke:none;fill-rule:nonzero;fill:rgb(85.490196%,14.901961%,24.313725%);fill-opacity:1;" />
</g>
</svg>